<?xml version="1.0" encoding="utf-8"?>
<!-- Generator: Adobe Illustrator 21.0.0, SVG Export Plug-In . SVG Version: 6.00 Build 0)  -->
<svg version="1.1" id="Layer_2" xmlns="http://www.w3.org/2000/svg" xmlns:xlink="http://www.w3.org/1999/xlink" x="0px" y="0px"
	 viewBox="0 0 99 28.2" style="enable-background:new 0 0 99 28.2;" xml:space="preserve">
<style type="text/css">
	.st0{fill:#4C516A;}
	.st1{fill:#C58686;}
</style>
<path class="st0" d="M0.3,8.7h2.8V6.8c0-4.2,3-6.8,7.3-6.8c1.2,0,2.3,0.1,3.3,0.4V0.3h2.9v1.3h0v2.8h0l0,16.3c0,1.6,0.8,2.5,2.2,2.5
	c0.7,0,1.3-0.2,1.8-0.8l1.6,2c-0.8,0.8-2,1.3-3.5,1.3c-3.1,0-5.1-2-5.1-5V2.9c-0.9-0.3-1.9-0.5-2.9-0.5C8,2.5,6.1,4.1,6.1,7v1.7h4.4
	V11H6.1v14.4h-3V11H0.3"/>
<path class="st0" d="M18.8,18.5c0-3.9,2.7-7.1,6.6-7.1c3.9,0,6.6,3.1,6.6,7.1c0,3.9-2.7,7.1-6.6,7.1C21.5,25.5,18.8,22.4,18.8,18.5z
	 M29.7,18.5c0-2.7-1.7-5-4.3-5c-2.7,0-4.3,2.2-4.3,5c0,2.7,1.6,4.9,4.3,4.9C28,23.4,29.7,21.2,29.7,18.5z"/>
<path class="st0" d="M52,8.7l-5.7,16.7H43l-2.8-8l-2.7,8h-3.2L28.6,8.7h3.3l4.2,13.2l2.7-8.3l-1.7-4.9h2.9l4.4,13.2l4.2-13.2H52z"/>
<path class="st0" d="M64.6,18.9H53c0.3,2.8,1.9,4.7,4.8,4.7c1.8,0,3-0.6,4.2-2.5l1.9,1.3c-1.3,2.2-3.3,3.6-6.2,3.6
	c-4.5,0-7.3-3.3-7.3-7.9c0-4.5,2.8-7.9,7.3-7.9c4.4,0,7,3.3,7,7.9C64.6,18.3,64.6,18.6,64.6,18.9z M53.1,16.8h9.1
	c-0.3-2.7-1.8-4.4-4.5-4.4C55.1,12.4,53.5,14.2,53.1,16.8z"/>
<path class="st0" d="M74.5,24.5c-0.8,0.8-2,1.3-3.5,1.3c-3.1,0-5.1-2-5.1-5V11h-2.2V8.7h2.2V3h2.9v5.7h4.6V11h-4.5v9.7
	c0,1.6,0.8,2.5,2.2,2.5c0.7,0,1.3-0.2,1.8-0.8L74.5,24.5z"/>
<path class="st0" d="M72.3,3.7c0-1.1,0.9-2,2-2c1,0,1.9,0.9,1.9,2c0,1.1-0.9,1.9-1.9,1.9C73.2,5.6,72.3,4.8,72.3,3.7z M72.8,8.7h2.9
	v16.7h-2.9V8.7z"/>
<path class="st0" d="M91.2,27.1l-11.1-10v8.3h-2.9V0.3h2.9v14.9l7.1-6.5H91l-8,7.4l8.3,7.4V27.1z"/>
<g>
	<path class="st1" d="M92.4,25.8c0-1,0.8-1.8,1.8-1.8c1,0,1.8,0.8,1.8,1.8c0,1-0.8,1.8-1.8,1.8C93.2,27.7,92.4,26.8,92.4,25.8z"/>
</g>
</svg>
